<svg xmlns="http://www.w3.org/2000/svg" width="38" height="38" viewBox="0 0 38 38">
  <g id="Group_19" data-name="Group 19" transform="translate(-878 -814)">
    <circle id="Ellipse_8" data-name="Ellipse 8" cx="19" cy="19" r="19" transform="translate(878 814)" fill="#fff" opacity="0.37"/>
    <g id="android-character-symbol" transform="translate(851.087 822.463)">
      <g id="Group_2" data-name="Group 2" transform="translate(36.539 -0.001)">
        <path id="Path_23" data-name="Path 23" d="M37.91,153.884a1.322,1.322,0,0,0-.972.4,1.307,1.307,0,0,0-.4.958v5.724a1.363,1.363,0,0,0,1.371,1.371,1.3,1.3,0,0,0,.965-.4,1.334,1.334,0,0,0,.393-.971v-5.724a1.363,1.363,0,0,0-1.358-1.358Z" transform="translate(-36.539 -146.71)" fill="#dcdcdc"/>
        <path id="Path_24" data-name="Path 24" d="M106.494,168.173a1.454,1.454,0,0,0,1.464,1.464h.985l.013,3.022a1.323,1.323,0,0,0,.4.972,1.307,1.307,0,0,0,.958.4,1.363,1.363,0,0,0,1.371-1.371v-3.022h1.837v3.022a1.371,1.371,0,1,0,2.742,0v-3.022h1a1.4,1.4,0,0,0,1.025-.426,1.413,1.413,0,0,0,.426-1.038v-8.865H106.494Z" transform="translate(-103.233 -151.881)" fill="#dcdcdc"/>
        <path id="Path_25" data-name="Path 25" d="M114.531,2.036l.945-1.744a.175.175,0,0,0-.066-.266.184.184,0,0,0-.266.08l-.959,1.757a6.681,6.681,0,0,0-5.351,0L107.876.106a.184.184,0,0,0-.266-.08.175.175,0,0,0-.066.266l.945,1.744a5.83,5.83,0,0,0-2.29,2.043,5.16,5.16,0,0,0-.852,2.868H117.66a5.16,5.16,0,0,0-.852-2.868A5.853,5.853,0,0,0,114.531,2.036Zm-5.464,2.536a.5.5,0,0,1-.366.153.478.478,0,0,1-.359-.153.531.531,0,0,1,0-.732.478.478,0,0,1,.359-.153.518.518,0,0,1,.366.885Zm5.611,0a.479.479,0,0,1-.36.153.519.519,0,0,1,0-1.038.478.478,0,0,1,.36.153.531.531,0,0,1,0,.732Z" transform="translate(-102.139 0.001)" fill="#dcdcdc"/>
        <path id="Path_26" data-name="Path 26" d="M382.333,154.277a1.334,1.334,0,0,0-.972-.393,1.318,1.318,0,0,0-.958.393,1.3,1.3,0,0,0-.4.965v5.724a1.323,1.323,0,0,0,.4.971,1.306,1.306,0,0,0,.958.4,1.363,1.363,0,0,0,1.371-1.371v-5.724A1.3,1.3,0,0,0,382.333,154.277Z" transform="translate(-363.991 -146.71)" fill="#dcdcdc"/>
      </g>
    </g>
  </g>
</svg>
