<svg xmlns="http://www.w3.org/2000/svg" width="38" height="38" viewBox="0 0 38 38">
  <g id="Group_20" data-name="Group 20" transform="translate(-941 -814)">
    <circle id="Ellipse_9" data-name="Ellipse 9" cx="19" cy="19" r="19" transform="translate(941 814)" fill="#fff" opacity="0.37"/>
    <g id="apple-logo" transform="translate(912.823 821.583)">
      <g id="Group_3" data-name="Group 3" transform="translate(38.692 0)">
        <path id="Path_27" data-name="Path 27" d="M53.477,115.885a4.559,4.559,0,0,1-.826-2.67,4.266,4.266,0,0,1,.778-2.478,7.757,7.757,0,0,1,1.365-1.413,6.173,6.173,0,0,0-1.245-1.2,4.378,4.378,0,0,0-2.55-.778,6.756,6.756,0,0,0-2.071.407,6,6,0,0,1-1.712.407,7.7,7.7,0,0,1-1.652-.359,7.965,7.965,0,0,0-2.119-.359,4.133,4.133,0,0,0-3.4,1.724,7.1,7.1,0,0,0-1.353,4.478,12.274,12.274,0,0,0,1.76,6.022q1.784,3.1,3.6,3.1a4.328,4.328,0,0,0,1.58-.407,4.614,4.614,0,0,1,1.7-.4,5.294,5.294,0,0,1,1.808.383,5.535,5.535,0,0,0,1.676.383q1.532,0,3.077-2.347a11.556,11.556,0,0,0,1.472-2.993A3.642,3.642,0,0,1,53.477,115.885Z" transform="translate(-38.692 -102.848)" fill="#dcdcdc"/>
        <path id="Path_28" data-name="Path 28" d="M236.223,3.783a4.914,4.914,0,0,0,1.114-1.652A4.567,4.567,0,0,0,237.683.5c0-.032,0-.072-.006-.12s-.006-.088-.006-.12a1.152,1.152,0,0,1-.03-.132,1.11,1.11,0,0,0-.03-.132,4.772,4.772,0,0,0-2.993,1.772,5.46,5.46,0,0,0-.934,3.077,6.69,6.69,0,0,0,1.245-.2A3.393,3.393,0,0,0,236.223,3.783Z" transform="translate(-225.508 0)" fill="#dcdcdc"/>
      </g>
    </g>
  </g>
</svg>
