<svg xmlns="http://www.w3.org/2000/svg" width="17.156" height="17.156" viewBox="0 0 17.156 17.156">
  <path id="facebook_1_" data-name="facebook (1)" d="M2.513,17.156h5.6v-6.1H6.1V9.047h2.01V6.534a2.516,2.516,0,0,1,2.513-2.513h2.513v2.01h-2.01A1.006,1.006,0,0,0,10.12,7.037v2.01h2.925l-.335,2.01H10.12v6.1h4.524a2.516,2.516,0,0,0,2.513-2.513V2.513A2.516,2.516,0,0,0,14.643,0H2.513A2.516,2.516,0,0,0,0,2.513v12.13A2.516,2.516,0,0,0,2.513,17.156ZM1.005,2.513A1.51,1.51,0,0,1,2.513,1.005h12.13a1.51,1.51,0,0,1,1.508,1.508v12.13a1.51,1.51,0,0,1-1.508,1.508H11.125V12.063h2.436l.67-4.021H11.125V7.037h3.016V3.016H10.622A3.522,3.522,0,0,0,7.1,6.534V8.042H5.093v4.021H7.1v4.088H2.513a1.51,1.51,0,0,1-1.508-1.508Zm0,0" fill="#dcdcdc"/>
</svg>
