<svg id="instagram_3_" data-name="instagram (3)" xmlns="http://www.w3.org/2000/svg" width="16.285" height="16.285" viewBox="0 0 16.285 16.285">
  <path id="Path_16" data-name="Path 16" d="M13.9,16.285H2.386A2.388,2.388,0,0,1,0,13.9V2.386A2.388,2.388,0,0,1,2.386,0H13.9a2.388,2.388,0,0,1,2.386,2.386V13.9A2.388,2.388,0,0,1,13.9,16.285Zm1.431-13.9A1.433,1.433,0,0,0,13.9.954H2.386A1.433,1.433,0,0,0,.954,2.386V13.9a1.433,1.433,0,0,0,1.431,1.431H13.9A1.433,1.433,0,0,0,15.331,13.9Zm0,0" fill="#dcdcdc"/>
  <path id="Path_17" data-name="Path 17" d="M125.294,129.588a4.294,4.294,0,1,1,4.294-4.294A4.3,4.3,0,0,1,125.294,129.588Zm0-7.634a3.34,3.34,0,1,0,3.34,3.34A3.343,3.343,0,0,0,125.294,121.954Zm0,0" transform="translate(-117.151 -117.151)" fill="#dcdcdc"/>
  <path id="Path_18" data-name="Path 18" d="M362.431,63.863a1.431,1.431,0,1,1,1.431-1.431A1.433,1.433,0,0,1,362.431,63.863Zm0-1.908a.477.477,0,1,0,.477.477A.478.478,0,0,0,362.431,61.954Zm0,0" transform="translate(-359.06 -59.06)" fill="#dcdcdc"/>
</svg>
