<svg xmlns="http://www.w3.org/2000/svg" width="113.264" height="41.932" viewBox="0 0 113.264 41.932">
  <g id="Group_7" data-name="Group 7" transform="translate(-140 -41)">
    <path id="Path_36" data-name="Path 36" d="M622.152,320.358l6.046-3.491a8.856,8.856,0,1,0,0,6.982Z" transform="translate(-440.54 -246.282)" fill="#4fb6b2"/>
    <path id="Path_37" data-name="Path 37" d="M679.1,199.578l-9.114,17.712h18.228Z" transform="translate(-509.651 -158.176)" fill="#4fb6b2"/>
    <path id="Path_38" data-name="Path 38" d="M715.1,311.5l-9.114,17.712h18.228Z" transform="translate(-513.943 -247.157)" fill="#4fb6b2"/>
    <path id="Path_39" data-name="Path 39" d="M815.522,319.683l-9.114-8.106v17.679h18.228V311.578Z" transform="translate(-591.748 -247.216)" fill="#4fb6b2"/>
    <path id="Path_40" data-name="Path 40" d="M921.327,311.578H911v17.678h10.327v-6.431a5.624,5.624,0,1,0,0-11.248Z" transform="translate(-673.687 -247.216)" fill="#4fb6b2"/>
    <path id="Path_41" data-name="Path 41" d="M595.933,205.277a5.624,5.624,0,0,0-5.624-5.624H579.982v17.679h15.935l-3.871-6.705A5.625,5.625,0,0,0,595.933,205.277Z" transform="translate(-439.982 -158.235)" fill="#4fb6b2"/>
    <path id="Path_42" data-name="Path 42" d="M779.854,199.653h-9.446v17.679h9.446c3.931,0,7.119-3.958,7.119-8.839S783.785,199.653,779.854,199.653Z" transform="translate(-587.455 -158.235)" fill="#4fb6b2"/>
    <rect id="Rectangle_9" data-name="Rectangle 9" width="6.56" height="17.679" transform="translate(203.856 41.418)" fill="#4fb6b2"/>
    <circle id="Ellipse_11" data-name="Ellipse 11" cx="9.038" cy="9.038" r="9.038" transform="translate(214.755 41)" fill="#4fb6b2"/>
  </g>
</svg>
