<svg id="Layer_1" data-name="Layer 1" xmlns="http://www.w3.org/2000/svg" viewBox="0 0 187.9 18.6"><defs><style>.cls-1{fill:#4fb6b2;}</style></defs><title>logo</title><path id="Path_36" data-name="Path 36" class="cls-1" d="M116.2,9.3l6-3.7A8.7,8.7,0,0,0,110.7.8,9.5,9.5,0,0,0,106,13a8.7,8.7,0,0,0,11.6,4.9,9.1,9.1,0,0,0,4.6-4.9Z"/><path id="Path_37" data-name="Path 37" class="cls-1" d="M29.4,0,20.3,18.6H38.6Z"/><path id="Path_38" data-name="Path 38" class="cls-1" d="M135.8,0l-9.1,18.6h18.2Z"/><path id="Path_39" data-name="Path 39" class="cls-1" d="M158.4,8.6,149.3,0V18.6h18.2V0Z"/><path id="Path_40" data-name="Path 40" class="cls-1" d="M182.3,0H171.9V18.6h10.3V11.9a5.8,5.8,0,0,0,5.6-5.9A5.8,5.8,0,0,0,182.3,0h0Z"/><path id="Path_41" data-name="Path 41" class="cls-1" d="M16,5.9A5.8,5.8,0,0,0,10.3,0H0V18.6H15.9l-3.9-7.1A5.9,5.9,0,0,0,16,5.9Z"/><path id="Path_42" data-name="Path 42" class="cls-1" d="M52.4,0H43V18.6h9.4c3.9,0,7.1-4.2,7.1-9.3S56.3,0,52.4,0Z"/><rect id="Rectangle_9" data-name="Rectangle 9" class="cls-1" x="63.9" width="6.6" height="18.59"/><ellipse id="Ellipse_11" data-name="Ellipse 11" class="cls-1" cx="83.8" cy="9.3" rx="9" ry="9.3"/></svg>