<?xml version="1.0" encoding="utf-8"?>
<!-- Generator: Adobe Illustrator 21.0.0, SVG Export Plug-In . SVG Version: 6.00 Build 0)  -->
<svg version="1.1" id="Layer_1" xmlns="http://www.w3.org/2000/svg" xmlns:xlink="http://www.w3.org/1999/xlink" x="0px" y="0px"
	 viewBox="0 0 187.9 18.6" style="enable-background:new 0 0 187.9 18.6;" xml:space="preserve">
<style type="text/css">
	.st0{fill:#4FB6B2;}
</style>
<g>
	<path id="Path_36" class="st0" d="M116.2,9.7l6-3.5c-1.9-4.5-7.1-6.6-11.6-4.6c-4.5,1.9-6.6,7.1-4.6,11.6c1.9,4.5,7.1,6.6,11.6,4.6
		c2.1-0.9,3.8-2.6,4.6-4.6L116.2,9.7z"/>
	<path id="Path_37" class="st0" d="M29.4,0.9l-9.1,17.7h18.2L29.4,0.9z"/>
	<path id="Path_38" class="st0" d="M135.8,0l-9.1,17.7h18.2L135.8,0z"/>
	<path id="Path_39" class="st0" d="M158.4,8.1L149.3,0v17.7h18.2V0L158.4,8.1z"/>
	<path id="Path_40" class="st0" d="M182.3,0h-10.3v17.7h10.3v-6.4c3.1,0,5.6-2.5,5.6-5.6S185.4,0,182.3,0C182.3,0,182.3,0,182.3,0
		L182.3,0z"/>
	<path id="Path_41" class="st0" d="M16,6.6c0-3.1-2.5-5.6-5.6-5.6l0,0H0v17.7h15.9l-3.9-6.7C14.4,11.2,16,9,16,6.6z"/>
	<path id="Path_42" class="st0" d="M52.4,0.9H43v17.7h9.4c3.9,0,7.1-4,7.1-8.8S56.3,0.9,52.4,0.9z"/>
	<rect id="Rectangle_9" x="63.9" y="0.9" class="st0" width="6.6" height="17.7"/>
	<circle id="Ellipse_11" class="st0" cx="83.8" cy="9.6" r="9"/>
</g>
</svg>
