<svg xmlns="http://www.w3.org/2000/svg" width="77.073" height="77.073" viewBox="0 0 77.073 77.073">
  <path id="Subtraction_10" data-name="Subtraction 10" d="M40.537-942.926a38.3,38.3,0,0,1-15-3.028,38.409,38.409,0,0,1-12.249-8.259,38.41,38.41,0,0,1-8.259-12.25,38.3,38.3,0,0,1-3.028-15,38.294,38.294,0,0,1,3.028-15,38.408,38.408,0,0,1,8.259-12.249,38.409,38.409,0,0,1,12.249-8.259,38.3,38.3,0,0,1,15-3.028,38.3,38.3,0,0,1,15,3.028,38.407,38.407,0,0,1,12.249,8.259,38.408,38.408,0,0,1,8.259,12.249,38.3,38.3,0,0,1,3.028,15,38.3,38.3,0,0,1-3.028,15,38.41,38.41,0,0,1-8.259,12.25,38.408,38.408,0,0,1-12.249,8.259A38.3,38.3,0,0,1,40.537-942.926Zm-6.492-48.632-.226,22.38L53.54-980.564Z" transform="translate(-2 1020)" fill="#fff" opacity="0.8"/>
</svg>
