<svg xmlns="http://www.w3.org/2000/svg" width="21.787" height="20.111" viewBox="0 0 21.787 20.111">
  <g id="share-symbol" transform="translate(0 -18.273)">
    <g id="Group_6" data-name="Group 6" transform="translate(0 18.273)">
      <path id="Path_48" data-name="Path 48" d="M91.272,23.549l-5.027-5.028a.806.806,0,0,0-.589-.249.913.913,0,0,0-.327.065.783.783,0,0,0-.511.773v2.514H82.723a21.394,21.394,0,0,0-2.573.144,13.878,13.878,0,0,0-2.088.4,8.5,8.5,0,0,0-1.63.635,6.973,6.973,0,0,0-1.237.805,5.1,5.1,0,0,0-.9.969,6.012,6.012,0,0,0-.616,1.067,6.166,6.166,0,0,0-.367,1.152,9.032,9.032,0,0,0-.183,1.178q-.046.55-.046,1.191a6.268,6.268,0,0,0,.229,1.6,10.423,10.423,0,0,0,.5,1.492q.275.628.648,1.3t.517.9q.144.222.275.406a.41.41,0,0,0,.34.17.71.71,0,0,0,.157-.026.4.4,0,0,0,.262-.445q-.589-4.4.969-6.193,1.506-1.715,5.735-1.715h2.1v2.514a.783.783,0,0,0,.511.773.91.91,0,0,0,.327.065.779.779,0,0,0,.589-.249l5.028-5.028a.822.822,0,0,0,0-1.178Z" transform="translate(-69.734 -18.273)" fill="#4fb6b2"/>
      <path id="Path_49" data-name="Path 49" d="M18.16,65.712a.389.389,0,0,0-.458.1,2.76,2.76,0,0,1-.707.484.412.412,0,0,0-.236.38v2.8a2.1,2.1,0,0,1-2.095,2.095H3.771a2.017,2.017,0,0,1-1.48-.615,2.017,2.017,0,0,1-.615-1.479V58.589a2.017,2.017,0,0,1,.615-1.479,2.017,2.017,0,0,1,1.48-.615H5.237a.605.605,0,0,0,.209-.052,8.742,8.742,0,0,1,1.741-.786.382.382,0,0,0,.34-.419.424.424,0,0,0-.419-.419H3.771a3.632,3.632,0,0,0-2.664,1.106A3.632,3.632,0,0,0,0,58.59V69.483a3.632,3.632,0,0,0,1.106,2.664,3.632,3.632,0,0,0,2.664,1.106H14.664a3.778,3.778,0,0,0,3.771-3.771V66.092A.4.4,0,0,0,18.16,65.712Z" transform="translate(0 -53.143)" fill="#4fb6b2"/>
    </g>
  </g>
</svg>
