<svg id="soundcloud_1_" data-name="soundcloud (1)" xmlns="http://www.w3.org/2000/svg" width="30.881" height="16.285" viewBox="0 0 30.881 16.285">
  <path id="Path_11" data-name="Path 11" d="M180,0h1.809V16.285H180Zm0,0" transform="translate(-169.143)" fill="#dcdcdc"/>
  <path id="Path_12" data-name="Path 12" d="M120,90h1.809v10.857H120Zm0,0" transform="translate(-112.762 -84.572)" fill="#dcdcdc"/>
  <path id="Path_13" data-name="Path 13" d="M60,60h1.809V72.666H60Zm0,0" transform="translate(-56.381 -56.381)" fill="#dcdcdc"/>
  <path id="Path_14" data-name="Path 14" d="M0,150H1.809v7.238H0Zm0,0" transform="translate(0 -140.953)" fill="#dcdcdc"/>
  <path id="Path_15" data-name="Path 15" d="M256.406,10.857a5.435,5.435,0,0,0-5.428-5.428q-.23,0-.459.019A8.326,8.326,0,0,0,242.714,0a8.164,8.164,0,0,0-2.035.257L240,.431V16.285h10.977A5.435,5.435,0,0,0,256.406,10.857Zm-14.6-8.983a6.4,6.4,0,0,1,.9-.064A6.466,6.466,0,0,1,249,6.676l.211.891a7.221,7.221,0,0,1,1.769-.329,3.619,3.619,0,1,1,0,7.238h-9.168Zm0,0" transform="translate(-225.524)" fill="#dcdcdc"/>
</svg>
