<svg xmlns="http://www.w3.org/2000/svg" width="1087" height="44" viewBox="0 0 1087 44">
  <g id="Group_18" data-name="Group 18" transform="translate(-139.5 -545)">
    <line id="Line_2" data-name="Line 2" x2="1087" transform="translate(139.5 566.5)" fill="none" stroke="#000" stroke-width="2"/>
    <circle id="Ellipse_7" data-name="Ellipse 7" cx="22" cy="22" r="22" transform="translate(217 545)" fill="#fff"/>
    <circle id="Ellipse_6" data-name="Ellipse 6" cx="14" cy="14" r="14" transform="translate(225 553)" fill="#4fb6b2"/>
    <circle id="Ellipse_7-2" data-name="Ellipse 7" cx="22" cy="22" r="22" transform="translate(365 545)" fill="#fff"/>
    <circle id="Ellipse_6-2" data-name="Ellipse 6" cx="14" cy="14" r="14" transform="translate(373 553)"/>
    <circle id="Ellipse_7-3" data-name="Ellipse 7" cx="22" cy="22" r="22" transform="translate(513 545)" fill="#fff"/>
    <circle id="Ellipse_6-3" data-name="Ellipse 6" cx="14" cy="14" r="14" transform="translate(521 553)" fill="#4fb6b2"/>
    <circle id="Ellipse_7-4" data-name="Ellipse 7" cx="22" cy="22" r="22" transform="translate(661 545)" fill="#fff"/>
    <circle id="Ellipse_6-4" data-name="Ellipse 6" cx="14" cy="14" r="14" transform="translate(669 553)"/>
    <circle id="Ellipse_7-5" data-name="Ellipse 7" cx="22" cy="22" r="22" transform="translate(809 545)" fill="#fff"/>
    <circle id="Ellipse_6-5" data-name="Ellipse 6" cx="14" cy="14" r="14" transform="translate(817 553)" fill="#4fb6b2"/>
    <circle id="Ellipse_7-6" data-name="Ellipse 7" cx="22" cy="22" r="22" transform="translate(957 545)" fill="#fff"/>
    <circle id="Ellipse_6-6" data-name="Ellipse 6" cx="14" cy="14" r="14" transform="translate(965 553)"/>
    <circle id="Ellipse_7-7" data-name="Ellipse 7" cx="22" cy="22" r="22" transform="translate(1105 545)" fill="#fff"/>
    <circle id="Ellipse_6-7" data-name="Ellipse 6" cx="14" cy="14" r="14" transform="translate(1113 553)"/>
  </g>
</svg>
