<svg id="youtube" xmlns="http://www.w3.org/2000/svg" width="21.379" height="16.285" viewBox="0 0 21.379 16.285">
  <path id="Path_19" data-name="Path 19" d="M3.132,16.285H18.248a3.135,3.135,0,0,0,3.132-3.132V3.132A3.135,3.135,0,0,0,18.248,0H3.132A3.135,3.135,0,0,0,0,3.132V13.153A3.135,3.135,0,0,0,3.132,16.285ZM1.253,3.132A1.881,1.881,0,0,1,3.132,1.253H18.248a1.881,1.881,0,0,1,1.879,1.879V13.153a1.881,1.881,0,0,1-1.879,1.879H3.132a1.881,1.881,0,0,1-1.879-1.879Zm0,0" fill="#dcdcdc"/>
  <path id="Path_20" data-name="Path 20" d="M181,94.508v8.514l7.537-4.327Zm1.253,2.129,3.737,2.076-3.737,2.145Zm0,0" transform="translate(-173.442 -90.561)" fill="#dcdcdc"/>
</svg>
